<svg width="88" height="87" viewBox="0 0 88 87" fill="none" xmlns="http://www.w3.org/2000/svg">
<path fill-rule="evenodd" clip-rule="evenodd" d="M26.6149 7.05739C25.5755 8.20647 25 9.70065 25 11.2501V11.8439V18.0938V64.3451C22.388 62.7748 19.1416 61.8439 15.625 61.8439C7 61.8439 0 67.4376 0 74.3439C0 81.2501 7 86.8439 15.625 86.8439C24.25 86.8439 31.25 81.2501 31.25 74.3439V17.4688L81.25 12.4688V51.8433C78.638 50.2737 75.3916 49.3439 71.875 49.3439C63.25 49.3439 56.25 54.9376 56.25 61.8439C56.25 68.7501 63.25 74.3439 71.875 74.3439C80.5 74.3439 87.5 68.7501 87.5 61.8439V11.8438V6.25006C87.5 6.25003 87.5 6.24999 87.5 6.24995V5.59386H87.4655C87.3971 4.94631 87.2278 4.31205 86.9626 3.71443C86.6082 2.91606 86.0904 2.20084 85.4427 1.61489C84.7949 1.02894 84.0315 0.585273 83.2017 0.312516C82.3719 0.0397588 81.4941 -0.0560349 80.625 0.0313129L30.625 5.03131C29.0834 5.18625 27.6542 5.9083 26.6149 7.05739Z" fill="white"/>
</svg>
